<svg width="196" height="51" viewBox="0 0 196 51" fill="none" xmlns="http://www.w3.org/2000/svg">
<path d="M44.632 37.264C46.5947 38.5867 48.0027 39.5467 48.856 40.144C50.392 41.296 51.16 42.4053 51.16 43.472C51.16 44.496 50.52 45.9467 49.24 47.824C47.96 49.7013 46.6587 50.64 45.336 50.64C44.5253 50.64 43.288 50.064 41.624 48.912C41.4107 48.784 40.8133 48.3787 39.832 47.696C38.8507 47.0133 38.0827 46.5013 37.528 46.16C33.56 49.232 29.1013 50.768 24.152 50.768C17.5387 50.768 11.9493 48.4213 7.384 43.728C2.86133 39.0347 0.6 33.4453 0.6 26.96C0.6 23.4187 1.24 20.112 2.52 17.04C3.8 13.9253 5.50667 11.3227 7.64 9.232C9.77333 7.14133 12.2267 5.49866 15 4.304C17.7733 3.10933 20.632 2.512 23.576 2.512C29.8907 2.512 35.3733 4.79466 40.024 9.36C44.6747 13.9253 47 19.7067 47 26.704C47 30.2453 46.2107 33.7653 44.632 37.264ZM11.928 26.64C11.928 30.4373 13.144 33.5307 15.576 35.92C18.0507 38.2667 20.8027 39.44 23.832 39.44C26.8613 39.44 29.592 38.288 32.024 35.984C34.456 33.68 35.672 30.5867 35.672 26.704C35.672 22.8213 34.4347 19.7067 31.96 17.36C29.528 15.0133 26.7973 13.84 23.768 13.84C20.7387 13.84 18.008 15.0347 15.576 17.424C13.144 19.7707 11.928 22.8427 11.928 26.64ZM67.7235 49.872C63.4142 49.872 59.8302 48.2507 56.9715 45.008C54.1555 41.7227 52.7475 37.7333 52.7475 33.04V21.84C52.7475 20.816 52.7688 20.0693 52.8115 19.6C52.8968 19.1307 53.0888 18.576 53.3875 17.936C53.9848 16.784 55.6488 16.208 58.3795 16.208C61.3662 16.208 63.1155 17.0187 63.6275 18.64C63.8835 19.3227 64.0115 20.4107 64.0115 21.904V33.104C64.0115 34.8533 64.5022 36.2187 65.4835 37.2C66.5075 38.1813 67.8515 38.672 69.5155 38.672C71.2222 38.672 72.5875 38.16 73.6115 37.136C74.6782 36.112 75.2115 34.768 75.2115 33.104V21.776C75.2115 20.7947 75.2328 20.0693 75.2755 19.6C75.3608 19.088 75.5742 18.512 75.9155 17.872C76.4702 16.7627 78.1128 16.208 80.8435 16.208C83.5315 16.208 85.1742 16.784 85.7715 17.936C86.0702 18.576 86.2408 19.152 86.2835 19.664C86.3688 20.1333 86.4115 20.8587 86.4115 21.84V44.496C86.4115 45.4347 86.3688 46.16 86.2835 46.672C86.2408 47.1413 86.0488 47.6747 85.7075 48.272C85.0675 49.3813 83.4248 49.936 80.7795 49.936C78.1768 49.936 76.5768 49.424 75.9795 48.4C75.5528 47.6747 75.3395 46.8 75.3395 45.776C75.1688 46.0747 74.7848 46.5013 74.1875 47.056C73.5902 47.6107 73.0142 48.08 72.4595 48.464C71.0088 49.4027 69.4302 49.872 67.7235 49.872ZM91.56 21.904C91.56 20.9227 91.5813 20.1973 91.624 19.728C91.7093 19.216 91.9013 18.64 92.2 18C92.7973 16.8907 94.4613 16.336 97.192 16.336C99.24 16.336 100.691 16.6987 101.544 17.424C102.269 18.0213 102.653 18.9387 102.696 20.176C102.739 20.6027 102.76 21.2213 102.76 22.032V44.432C102.76 45.4133 102.717 46.16 102.632 46.672C102.589 47.1413 102.397 47.696 102.056 48.336C101.501 49.4453 99.8587 50 97.128 50C94.44 50 92.7973 49.424 92.2 48.272C91.9013 47.632 91.7093 47.0773 91.624 46.608C91.5813 46.1387 91.56 45.392 91.56 44.368V21.904ZM102.056 10.064C101.757 10.6613 101.203 11.088 100.392 11.344C99.5813 11.6 98.4933 11.728 97.128 11.728C95.8053 11.728 94.7387 11.6 93.928 11.344C93.1173 11.088 92.5413 10.64 92.2 10C91.9013 9.36 91.7093 8.80533 91.624 8.336C91.5813 7.824 91.56 7.07733 91.56 6.096C91.56 5.11466 91.5813 4.38933 91.624 3.92C91.7093 3.408 91.9013 2.85333 92.2 2.256C92.7973 1.104 94.4613 0.527996 97.192 0.527996C99.88 0.527996 101.501 1.104 102.056 2.256C102.397 2.896 102.589 3.472 102.632 3.984C102.717 4.45333 102.76 5.17867 102.76 6.16C102.76 7.14133 102.717 7.888 102.632 8.4C102.589 8.86933 102.397 9.424 102.056 10.064ZM124.705 38.736H135.649C137.355 38.736 138.571 38.9493 139.297 39.376C140.065 39.8027 140.577 40.4213 140.833 41.232C141.089 42.0427 141.217 43.1093 141.217 44.432C141.217 45.7547 141.089 46.8213 140.833 47.632C140.577 48.4427 140.129 49.0187 139.489 49.36C138.849 49.6587 138.273 49.8507 137.761 49.936C137.291 49.9787 136.566 50 135.585 50H112.481C110.987 50 109.686 49.4453 108.577 48.336C107.467 47.2267 106.913 45.904 106.913 44.368C106.913 42.832 107.467 41.5307 108.577 40.464C109.686 39.3547 111.393 37.776 113.697 35.728C116.001 33.68 118.091 31.8453 119.969 30.224C121.846 28.56 122.87 27.6427 123.041 27.472H114.017C111.585 27.472 110.049 27.0667 109.409 26.256C108.683 25.3173 108.321 24.08 108.321 22.544C108.321 21.008 108.427 19.8773 108.641 19.152C108.854 18.384 109.11 17.8293 109.409 17.488C109.707 17.104 110.134 16.8053 110.689 16.592C111.414 16.3787 112.523 16.272 114.017 16.272H134.817C136.31 16.272 137.611 16.8053 138.721 17.872C139.83 18.9387 140.385 20.2827 140.385 21.904C140.385 23.4827 139.745 24.8907 138.465 26.128C137.185 27.3653 132.598 31.568 124.705 38.736ZM145.373 21.904C145.373 20.9227 145.394 20.1973 145.437 19.728C145.522 19.216 145.714 18.64 146.013 18C146.61 16.8907 148.274 16.336 151.005 16.336C153.053 16.336 154.503 16.6987 155.357 17.424C156.082 18.0213 156.466 18.9387 156.509 20.176C156.551 20.6027 156.573 21.2213 156.573 22.032V44.432C156.573 45.4133 156.53 46.16 156.445 46.672C156.402 47.1413 156.21 47.696 155.869 48.336C155.314 49.4453 153.671 50 150.941 50C148.253 50 146.61 49.424 146.013 48.272C145.714 47.632 145.522 47.0773 145.437 46.608C145.394 46.1387 145.373 45.392 145.373 44.368V21.904ZM155.869 10.064C155.57 10.6613 155.015 11.088 154.205 11.344C153.394 11.6 152.306 11.728 150.941 11.728C149.618 11.728 148.551 11.6 147.741 11.344C146.93 11.088 146.354 10.64 146.013 10C145.714 9.36 145.522 8.80533 145.437 8.336C145.394 7.824 145.373 7.07733 145.373 6.096C145.373 5.11466 145.394 4.38933 145.437 3.92C145.522 3.408 145.714 2.85333 146.013 2.256C146.61 1.104 148.274 0.527996 151.005 0.527996C153.693 0.527996 155.314 1.104 155.869 2.256C156.21 2.896 156.402 3.472 156.445 3.984C156.53 4.45333 156.573 5.17867 156.573 6.16C156.573 7.14133 156.53 7.888 156.445 8.4C156.402 8.86933 156.21 9.424 155.869 10.064ZM160.725 33.168C160.725 28.048 162.517 23.824 166.101 20.496C169.685 17.168 173.781 15.504 178.389 15.504C182.997 15.504 187.072 17.168 190.613 20.496C194.154 23.7813 195.925 27.984 195.925 33.104C195.925 36.6453 195.008 39.8027 193.173 42.576C191.338 45.3067 189.098 47.3333 186.453 48.656C183.85 49.936 181.141 50.576 178.325 50.576C175.509 50.576 172.778 49.8933 170.133 48.528C167.488 47.12 165.248 45.072 163.413 42.384C161.621 39.6533 160.725 36.5813 160.725 33.168ZM174.101 37.776C175.466 38.8 176.853 39.312 178.261 39.312C179.669 39.312 181.077 38.7787 182.485 37.712C183.893 36.6453 184.597 35.0667 184.597 32.976C184.597 30.8853 183.936 29.328 182.613 28.304C181.29 27.28 179.861 26.768 178.325 26.768C176.789 26.768 175.36 27.3013 174.037 28.368C172.714 29.4347 172.053 31.0133 172.053 33.104C172.053 35.152 172.736 36.7093 174.101 37.776Z" fill="#3B1E54"/>
</svg>
